PathFileType	4	(X/Y/Z)	/home/abdul/Desktop/myosuite/custom_workspace/IK/output/S3_12_3.trc
DataRate	CameraRate	NumFrames	NumMarkers	Units	OrigDataRate	OrigDataStartFrame	OrigNumFrames
200.0	200.0	39	3	mm	200.0	696	1113
Frame#	Time	V_Shoulder			V_Elbow			V_Wrist		
		X1	Y1	Z1	X2	Y2	Z2	X3	Y3	Z3

696	3.475	-120.96624539703801	676.5829114723967	327.97773105601726	-356.57253306607413	454.46244121022346	165.37435649837386	-121.39156611443047	385.5403476942861	322.7714846445824
697	3.48	-121.0022613496191	676.489887158866	327.9141405977175	-356.56676375661607	454.77913935595825	164.67803812565808	-121.40063677928376	384.0600608449928	321.3273102397176
698	3.485	-121.03847989618329	676.3950915442146	327.8497126753291	-356.5542843808579	455.09513398060346	163.97466978072686	-121.40941813621723	382.55860669510616	319.8536575878414
699	3.49	-121.07492253535476	676.2985024933096	327.7844420006029	-356.5349693172858	455.41020735106986	163.26431153052204	-121.41800472928662	381.0363693393648	318.35049024556884
700	3.495	-121.11161077439232	676.2000964078454	327.71832385101334	-356.5087007796191	455.7241444420778	162.54702425553575	-121.42649363839394	379.49376920416375	316.81780118585345
701	3.5	-121.14856606459466	676.0998483454288	327.65135408696034	-356.47536905536685	456.03673347755944	161.82286960096664	-121.434984333074	377.9312633749207	315.25561353880437
702	3.505	-121.18580973731302	675.9977321492846	327.58352916559306	-356.43487272956975	456.34776646695434	161.09190992754398	-121.44357852183032	376.34934578162347	313.66398124826196
703	3.51	-121.22336294075451	675.8937205881361	327.51484615132017	-356.3871188934046	456.65703973415145	160.35420826369548	-121.45237999748083	374.7485472395118	312.0429896412645
704	3.515	-121.26124657775505	675.7877855057606	327.44530272309515	-356.33202333735784	456.9643544368121	159.60982826082804	-121.4614944789357	373.1294353426674	310.3927559080089
705	3.52	-121.29948124469682	675.6798979796812	327.37489717859313	-356.26951072871134	457.2695170737935	158.85883415356722	-121.47102944978165	371.492614209114	308.71342949038626
706	3.525	-121.33808717174016	675.5700284884091	327.3036284354141	-356.1995147731106	457.57233997840166	158.10129072685697	-121.48109399399203	369.8387240768758	307.0051923776548
707	3.53	-121.37708416453303	675.4581470866077	327.23149602947245	-356.1219783600204	457.8726417952149	157.33726329185697	-121.49179862902034	368.1684407512889	305.2682593082944
708	3.535	-121.41649154755645	675.3442235875173	327.1585001107532	-356.03685369190157	458.17024793824964	156.56681767258652	-121.50325513646726	366.48247490470834	303.5028778775681
709	3.54	-121.45632810925646	675.2282277519329	327.0846414366303	-355.9441023969706	458.4649910282853	155.79002020525505	-121.51557639044049	364.7815712305919	301.70932855078775
710	3.545	-121.49661204910741	675.1101294830065	327.00992136296435	-355.8436956254385	458.75671130722196	155.00693775218332	-121.52887618365341	363.06650745476713	299.8879245827487
711	3.55	-121.53736092674228	674.9898990261029	326.93434183320676	-355.7356141291466	459.04525702741705	154.21763773216102	-121.5432690512333	361.33809320749305	298.0390118442534
712	3.555	-121.57859161327993	674.8675071729177	326.85790536575377	-355.6198483245506	459.3304848140315	153.4221881690023	-121.55887009213613	359.5971687607083	296.16296855708146
713	3.56	-121.6203202449691	674.7429254690381	326.78061503980234	-355.4963983390269	459.6122599985172	152.62065775995305	-121.57579478799397	357.8446036356057	294.26020493919475
714	3.565	-121.66256217926245	674.6161264241068	326.70247447996945	-355.36527404050366	459.89045692149	151.8131159654698	-121.59415881915233	356.08129508638467	292.33116276236854
715	3.57	-121.70533195342385	674.4870837237307	326.6234878399407	-355.2264950504426	460.1649592033575	150.99963312173568	-121.61407787759332	354.30816646670365	290.3763148248299
716	3.575	-121.74864324576413	674.355772442263	326.5436597854194	-355.0800907402224	460.43565998121187	150.1802805770975	-121.63566747638518	352.52616548597854	288.39616434185126
717	3.58	-121.7925088395912	674.2221692555739	326.4629954766469	-354.92610021099676	460.7024621106445	149.35513085340932	-121.65904275525138	350.73626236324696	286.3912442575892
718	3.585	-121.83694058995142	674.0862526529212	326.38150055076557	-354.76457225712517	460.9652783313046	148.52425783304574	-121.68431828181626	348.9394478868385	284.36211648177857
719	3.59	-121.88194939322962	673.948003147022	326.2991811042909	-354.5955653132909	461.224031395191	147.68773697210975	-121.7116078480573	347.13673138855347	282.3093710551848
720	3.595	-121.92754515966662	673.8074034814364	326.2160436759532	-354.4191473854465	461.47865415685135	146.84564554010296	-121.74102426147982	345.3291386414552	280.233625247987
721	3.6	-121.97373678884257	673.6644388343665	326.1320952301642	-354.2353959657409	461.7290896248461	145.99806288605689	-121.772679130529	343.5177096907204	278.13552259550306
722	3.605	-122.0205321481662	673.5190970179876	326.0473431413489	-354.0443979316037	461.97529097403327	145.14507073084053	-121.8066826437643	341.7034966272693	276.0157318758803
723	3.61	-122.06793805439992	673.3713686724437	325.9617951793752	-353.84624942917696	462.21722151843016	144.28675348506704	-121.843143342348	339.8875613141073	273.8749460345624
724	3.615	-122.1159602582419	673.2212474536406	325.87545949629697	-353.6410557413012	462.45485464461024	143.42319859172488	-121.88216788543733	338.0709730754548	271.71388106049653
725	3.62	-122.16460343197696	673.0687302140026	325.7883446146109	-353.4289311402779	462.68817370580246	142.55449689235374	-121.92386080812261	336.2548063588212	269.5332748191729
726	3.625	-122.21387116019855	672.9138171753722	325.70045941720963	-353.2099987256415	462.91717187706865	141.68074301528316	-121.96832427161993	334.44013838019276	267.3338858476875
727	3.63	-122.26376593359566	672.7565120932596	325.61181313919536	-352.9843902471896	463.1418519721426	140.80203578414822	-122.01565780550534	332.6280467624518	265.11649211708664
728	3.635	-122.31428914578915	672.5968224116772	325.52241536169504	-352.7522459135269	463.3622262227193	139.9184786446003	-122.06595804186887	330.8196071770324	262.8818897672941
729	3.64	-122.36544109319327	672.4347594078273	325.43227600779875	-352.5137141863936	463.5783160211885	139.03018010684085	-122.11931844136791	329.0158909986403	260.6308918199305
730	3.645	-122.41722097786958	672.2703383259473	325.34140534071923	-352.2689515610522	463.79015162800385	138.13725420132872	-122.17582901127174	327.21796298263325	258.36432687432045
731	3.65	-122.46962691333168	672.1035784996496	325.24981396424636	-352.0181223330201	463.9977718450707	137.2398209447476	-122.23557601570937	325.42687897436707	256.08303779193596
732	3.655	-122.52265593325167	671.9345034621424	325.1575128255467	-351.7613983514384	464.2012236567215	136.3380068130733	-122.29864167846053	323.6436836594697	253.78788037445275
733	3.66	-122.57630400300972	671.7631410437554	325.06451322033337	-351.49895875937693	464.400561840023	135.43194521835343	-122.36510387876247	321.8694083636168	251.47972204049563
734	3.665	-122.63056603402181	671.5895234562421	324.97082680040734	-351.23098972137706	464.5958485463249	134.5217769856087	-122.43503584074213	320.10506890994435	249.15944050602363
